<svg xmlns="http://www.w3.org/2000/svg" viewBox="0 -0.5 248 74" shape-rendering="crispEdges">
<metadata>Made with Pixels to Svg https://codepen.io/shshaw/pen/XbxvNj</metadata>
<path stroke="#4c4c4c" d="M112 0h24M112 1h24M112 2h24M112 3h24M100 4h12M136 4h12M100 5h12M136 5h12M100 6h12M136 6h12M100 7h12M136 7h12M92 8h8M148 8h8M92 9h8M148 9h8M92 10h8M148 10h8M92 11h8M148 11h8M88 12h4M156 12h4M88 13h4M156 13h4M88 14h4M156 14h4M88 15h4M156 15h4M84 16h4M160 16h4M84 17h4M160 17h4M84 18h4M160 18h4M84 19h4M160 19h4M84 20h4M160 20h4M84 21h4M160 21h4M84 22h4M160 22h4M84 23h4M160 23h4M80 24h4M164 24h4M80 25h4M164 25h4M80 26h4M164 26h4M80 27h4M164 27h4M80 28h4M164 28h4M80 29h4M164 29h4M80 30h4M164 30h4M80 31h4M164 31h4M52 36h32M164 36h32M52 37h32M164 37h32M62 38h28M158 38h28M62 39h28M158 39h28M66 40h2M80 40h10M102 40h10M136 40h10M158 40h10M180 40h2M66 41h2M80 41h10M102 41h10M136 41h10M158 41h10M180 41h2M102 42h10M136 42h10M102 43h10M136 43h10" />
<path stroke="#9e9e9e" d="M112 4h24M112 5h24M112 6h24M112 7h24M100 8h48M100 9h48M100 10h48M100 11h48M92 12h64M92 13h64M92 14h64M92 15h64M88 16h72M88 17h72M88 18h72M88 19h72M88 20h72M88 21h72M88 22h72M88 23h72M84 24h80M84 25h80M84 26h80M84 27h80M84 28h8M156 28h8M84 29h8M156 29h8M84 30h8M156 30h8M84 31h8M156 31h8" />
<path stroke="#262626" d="M92 28h64M92 29h64M92 30h64M92 31h64M52 32h40M156 32h40M52 33h40M156 33h40M52 34h40M156 34h40M52 35h40M156 35h40M28 36h24M196 36h24M28 37h24M196 37h24M28 38h24M196 38h24M28 39h24M196 39h24M12 40h16M40 40h14M194 40h14M220 40h16M12 41h16M40 41h14M194 41h14M220 41h16M12 42h16M40 42h18M190 42h18M220 42h16M12 43h16M40 43h18M190 43h18M220 43h16M4 44h8M56 44h12M180 44h12M236 44h8M4 45h8M56 45h12M180 45h12M236 45h8M4 46h8M56 46h20M172 46h20M236 46h8M4 47h8M56 47h20M172 47h20M236 47h8M0 48h4M80 48h10M158 48h10M244 48h4M0 49h4M80 49h10M158 49h10M244 49h4M0 50h4M80 50h20M148 50h20M244 50h4M0 51h4M80 51h20M148 51h20M244 51h4M4 52h8M112 52h24M236 52h8M4 53h8M112 53h24M236 53h8M4 54h8M112 54h24M236 54h8M4 55h8M112 55h24M236 55h8M12 56h12M224 56h12M12 57h12M224 57h12M12 58h12M224 58h12M12 59h12M224 59h12M24 60h20M204 60h20M24 61h20M204 61h20M24 62h20M204 62h20M24 63h20M204 63h20M44 64h36M168 64h36M44 65h36M168 65h36M44 66h36M168 66h36M44 67h36M168 67h36M80 68h88M80 69h88M80 70h88M80 71h88" />
<path stroke="#666666" d="M92 32h64M92 33h64M92 34h64M92 35h64M12 44h28M208 44h28M12 45h28M208 45h28M16 46h24M208 46h24M16 47h24M208 47h24M26 48h30M192 48h30M26 49h30M192 49h30M32 50h24M192 50h24M32 51h24M192 51h24M48 52h32M168 52h32M48 53h32M168 53h32M56 54h24M168 54h24M56 55h24M168 55h24M74 56h38M136 56h38M74 57h38M136 57h38M88 58h24M136 58h24M88 59h24M136 59h24M106 60h36M106 61h36M112 62h24M112 63h24" />
<path stroke="#595959" d="M84 36h80M84 37h80M90 38h68M90 39h68" />
<path stroke="#3f3f3f" d="M52 38h10M186 38h10M52 39h10M186 39h10M54 40h12M182 40h12M54 41h12M182 41h12M58 42h10M80 42h10M158 42h10M180 42h10M58 43h10M80 43h10M158 43h10M180 43h10M84 44h6M102 44h10M136 44h10M158 44h6M84 45h6M102 45h10M136 45h10M158 45h6M12 46h4M106 46h6M136 46h6M232 46h4M12 47h4M106 47h6M136 47h6M232 47h4M8 48h18M222 48h18M8 49h18M222 49h18M16 50h16M216 50h16M16 51h16M216 51h16M24 52h16M44 52h4M200 52h4M208 52h16M24 53h16M44 53h4M200 53h4M208 53h16M32 54h8M44 54h12M192 54h12M208 54h8M32 55h8M44 55h12M192 55h12M208 55h8M44 56h30M174 56h30M44 57h30M174 57h30M66 58h22M160 58h22M66 59h22M160 59h22M80 60h4M88 60h18M142 60h18M164 60h4M80 61h4M88 61h18M142 61h18M164 61h4M88 62h24M136 62h24M88 63h24M136 63h24M102 64h44M102 65h44M116 66h16M116 67h16" />
<path stroke="#7f7f7f" d="M28 40h12M208 40h12M28 41h12M208 41h12M28 42h12M208 42h12M28 43h12M208 43h12M40 44h16M192 44h16M40 45h16M192 45h16M40 46h16M192 46h16M40 47h16M192 47h16M56 48h24M168 48h24M56 49h24M168 49h24M56 50h24M168 50h24M56 51h24M168 51h24M80 52h32M136 52h32M80 53h32M136 53h32M80 54h32M136 54h32M80 55h32M136 55h32M112 56h24M112 57h24M112 58h24M112 59h24" />
<path stroke="#1e7f1e" d="M68 40h12M168 40h12M68 41h12M168 41h12M68 42h12M168 42h12M68 43h12M168 43h12" />
<path stroke="#27a527" d="M90 40h12M146 40h12M90 41h12M146 41h12M90 42h12M146 42h12M90 43h12M146 43h12M90 44h12M146 44h12M90 45h12M146 45h12" />
<path stroke="#3dff3d" d="M112 40h24M112 41h24M112 42h24M112 43h24M112 44h24M112 45h24M112 46h24M112 47h24" />
<path stroke="#333333" d="M68 44h16M164 44h16M68 45h16M164 45h16M76 46h30M142 46h30M76 47h30M142 47h30M4 48h4M90 48h68M240 48h4M4 49h4M90 49h68M240 49h4M4 50h12M100 50h48M232 50h12M4 51h12M100 51h48M232 51h12M12 52h12M224 52h12M12 53h12M224 53h12M12 54h20M216 54h20M12 55h20M216 55h20M24 56h20M204 56h20M24 57h20M204 57h20M24 58h42M182 58h42M24 59h42M182 59h42M44 60h36M168 60h36M44 61h36M168 61h36M44 62h40M164 62h40M44 63h40M164 63h40M80 64h22M146 64h22M80 65h22M146 65h22M80 66h36M132 66h36M80 67h36M132 67h36" />
<path stroke="#ff162e" d="M40 52h4M204 52h4M40 53h4M204 53h4M40 54h4M204 54h4M40 55h4M204 55h4M84 60h4M160 60h4M84 61h4M160 61h4M84 62h4M160 62h4M84 63h4M160 63h4" />
</svg>